<?xml version='1.0' encoding='UTF-8' standalone='no'?>
<!-- Created with Fritzing (http://www.fritzing.org/) -->
<svg xmlns="http://www.w3.org/2000/svg" y="0in" x="0in" width="0.333in" baseProfile="tiny"  version="1.2" height="0.6in" viewBox="0 0 333 600">
    <desc>
        <referenceFile>sparkfun-poweric_sot223_breadboard.svg</referenceFile>
    </desc>
    <desc >Fritzing breadboard generated by brd2svg</desc>
    <g gorn="0.1"  id="breadboard">
        <g gorn="0.1.0"  id="icon">
            <path fill="#1F7A34"  stroke="none" stroke-width="0" d="M0,0L0,270A30,30 0 0 1 0,330L0,600L333,600L333,0L0,0z"/>
            <g transform="translate(33.5,134.343)" >
                <g >
                    <g transform="matrix(0.5, 0, 0, 0.5, 66.5, 82.8287)" >
                        <g >
                            <rect connectorname="1" fill="#8c8c8c" y="243.315" x="18" width="48" stroke-linecap="round"  height="88" stroke="none" stroke-width="0"/>
                            <rect connectorname="2" fill="#8c8c8c" y="243.315" x="109" width="48" stroke-linecap="round"  height="88" stroke="none" stroke-width="0"/>
                            <rect connectorname="3" fill="#8c8c8c" y="243.315" x="200" width="48" stroke-linecap="round"  height="88" stroke="none" stroke-width="0"/>
                            <rect connectorname="4" fill="#8c8c8c" y="0" x="62.1339" width="141.732" stroke-linecap="round"  height="86.6142" stroke="none" stroke-width="0"/>
                            <rect fill="#303030" y="96.6575" x="0" width="266"  height="138" stroke="none" stroke-width="0"/>
                            <polygon fill="#1f1f1f"  points="0,96.6575 266,96.6575 256,106.657 10,106.657"/>
                            <polygon fill="#1f1f1f"  points="0,234.657 266,234.657 256,224.657 10,224.657"/>
                            <polygon fill="#000000"  points="0,96.6575 0,234.657 10,224.657 10,106.657"/>
                            <polygon fill="#3d3d3d"  points="266,96.6575 266,234.657 256,224.657 256,106.657"/>
                            <circle fill="#1f1f1f"  stroke="none" cy="204.657" stroke-width="0" cx="30" r="10"/>
                        </g>
                    </g>
                </g>
            </g>
            <text font-family="OCRA" fill="white" gorn="0.1.0.2" y="324.375" x="50" font-size="65"  text-anchor="start" stroke="none" stroke-width="0" id="label">SOT223</text>
            <g transform="translate(130,526.05)" >
                <g >
                    <g transform="rotate(-90)" >
                        <g >
                            <text font-family="OCRA" fill="white" y="0" x="0" font-size="45"  text-anchor="start" stroke="none" stroke-width="0">1</text>
                        </g>
                    </g>
                </g>
            </g>
            <g transform="translate(130,73.95)" >
                <g >
                    <g transform="rotate(-90)" >
                        <g >
                            <text font-family="OCRA" fill="white" y="0" x="0" font-size="45"  text-anchor="end" stroke="none" stroke-width="0">4</text>
                        </g>
                    </g>
                </g>
            </g>
            <g transform="translate(230,526.05)" >
                <g >
                    <g transform="rotate(-90)" >
                        <g >
                            <text font-family="OCRA" fill="white" y="0" x="0" font-size="45"  text-anchor="start" stroke="none" stroke-width="0">2</text>
                        </g>
                    </g>
                </g>
            </g>
            <g transform="translate(230,73.95)" >
                <g >
                    <g transform="rotate(-90)" >
                        <g >
                            <text font-family="OCRA" fill="white" y="0" x="0" font-size="45"  text-anchor="end" stroke="none" stroke-width="0">3</text>
                        </g>
                    </g>
                </g>
            </g>
        </g>
        <g transform="translate(100.535,534.05)" >
            <g >
                <rect fill="#8D8C8C" gorn="0.1.1.0.0" y="0" x="0" width="31.93"  height="31.9" id="connector0pin"/>
                <rect fill="#8C8663" y="7.73544" x="7.79153" width="16.4442"  height="16.4152"/>
                <polygon fill="#B8AF82"  points="0,31.9,7.79153,24.1368,7.79153,6.97162,0,0"/>
                <polygon fill="#80795B"  points="24.2079,7.76321,7.90264,7.76321,0,0,31.93,0"/>
                <polygon fill="#5E5B43"  points="24.2079,24.1368,24.2079,7.76321,31.93,0,31.93,31.9"/>
                <polygon fill="#9A916C"  points="0,31.9,7.87486,24.1368,24.2079,24.1368,31.93,31.9"/>
            </g>
        </g>
        <g transform="translate(100.535,34.05)" >
            <g >
                <rect fill="#8D8C8C" gorn="0.1.2.0.0" y="0" x="0" width="31.93"  height="31.9" id="connector3pin"/>
                <rect fill="#8C8663" y="7.73544" x="7.79153" width="16.4442"  height="16.4152"/>
                <polygon fill="#B8AF82"  points="0,31.9,7.79153,24.1368,7.79153,6.97162,0,0"/>
                <polygon fill="#80795B"  points="24.2079,7.76321,7.90264,7.76321,0,0,31.93,0"/>
                <polygon fill="#5E5B43"  points="24.2079,24.1368,24.2079,7.76321,31.93,0,31.93,31.9"/>
                <polygon fill="#9A916C"  points="0,31.9,7.87486,24.1368,24.2079,24.1368,31.93,31.9"/>
            </g>
        </g>
        <g transform="translate(200.535,534.05)" >
            <g >
                <rect fill="#8D8C8C" gorn="0.1.3.0.0" y="0" x="0" width="31.93"  height="31.9" id="connector1pin"/>
                <rect fill="#8C8663" y="7.73544" x="7.79153" width="16.4442"  height="16.4152"/>
                <polygon fill="#B8AF82"  points="0,31.9,7.79153,24.1368,7.79153,6.97162,0,0"/>
                <polygon fill="#80795B"  points="24.2079,7.76321,7.90264,7.76321,0,0,31.93,0"/>
                <polygon fill="#5E5B43"  points="24.2079,24.1368,24.2079,7.76321,31.93,0,31.93,31.9"/>
                <polygon fill="#9A916C"  points="0,31.9,7.87486,24.1368,24.2079,24.1368,31.93,31.9"/>
            </g>
        </g>
        <g transform="translate(200.535,34.05)" >
            <g >
                <rect fill="#8D8C8C" gorn="0.1.4.0.0" y="0" x="0" width="31.93"  height="31.9" id="connector2pin"/>
                <rect fill="#8C8663" y="7.73544" x="7.79153" width="16.4442"  height="16.4152"/>
                <polygon fill="#B8AF82"  points="0,31.9,7.79153,24.1368,7.79153,6.97162,0,0"/>
                <polygon fill="#80795B"  points="24.2079,7.76321,7.90264,7.76321,0,0,31.93,0"/>
                <polygon fill="#5E5B43"  points="24.2079,24.1368,24.2079,7.76321,31.93,0,31.93,31.9"/>
                <polygon fill="#9A916C"  points="0,31.9,7.87486,24.1368,24.2079,24.1368,31.93,31.9"/>
            </g>
        </g>
    </g>
</svg>
