<?xml version='1.0' encoding='UTF-8' standalone='no'?>
<!-- Created with Inkscape (http://www.inkscape.org/) -->
<svg xmlns="http://www.w3.org/2000/svg" width="63.779526" version="1.2" gorn="0"  height="85.039368" viewBox="0 0 51.023621 68.031802" id="svg4568">
    <desc >
        <referenceFile >svg.pcb.newESP.svg</referenceFile>
    </desc>
    <desc  id="desc4572">Fritzing footprint generated by brd2svg</desc>
    <metadata  id="metadata4718">
        <rdf:RDF xmlns:rdf="http://www.w3.org/1999/02/22-rdf-syntax-ns#">
            <cc:Work xmlns:rdf="http://www.w3.org/1999/02/22-rdf-syntax-ns#" xmlns:cc="http://creativecommons.org/ns#" rdf:about="">
                <dc:format xmlns:dc="http://purl.org/dc/elements/1.1/">image/svg+xml</dc:format>
                <dc:type xmlns:rdf="http://www.w3.org/1999/02/22-rdf-syntax-ns#" rdf:resource="http://purl.org/dc/dcmitype/StillImage" xmlns:dc="http://purl.org/dc/elements/1.1/"/>
                <dc:title xmlns:dc="http://purl.org/dc/elements/1.1/"/>
            </cc:Work>
        </rdf:RDF>
    </metadata>
    <defs  id="defs4570"/>
    <g gorn="0.4"  id="silkscreen">
        <g  transform="matrix(0.80000362,0,0,0.80000362,-1.1525e-4,0)">
            <g >
                <path stroke-opacity="1" fill="none" gorn="0.4.0.0.0"  stroke="#ffffff" style="stroke-linecap:butt;stroke-linejoin:miter;stroke-miterlimit:4;stroke-dasharray:none" id="path3529" stroke-width="0.35433071999999999" d="m 0.35433071,25.866139 0,-22.3228343 C 0.40576958,1.2187913 1.2466678,0.35432831 3.5433071,0.35432831 l 56.6929129,0 c 2.177704,0 3.188977,0.95024779 3.188977,3.18897639 l 0,22.3228343"/>
            </g>
        </g>
        <path stroke-opacity="1" fill="none" gorn="0.4.1"  stroke="#ffffff" style="stroke-linecap:butt;stroke-linejoin:miter;stroke-miterlimit:4;stroke-dasharray:none" id="path4299" stroke-width="0.28346586000000001" d="m 0.88538376,67.028364 c 0.40298934,0.405345 1.03049964,0.578239 1.94915954,0.578239 l 45.3545357,0 c 0.871085,0 1.508884,-0.190051 1.928911,-0.603975"/>
    </g>
    <g gorn="0.5"  id="copper1">
        <path fill="#f7bd13" gorn="0.5.0"  stroke="none" fill-opacity="1" id="connector1pin" d="m 0.0119324,65.197144 6.3779816,0 0,-3.401615 -6.3779816,0 z m 5.7896732,-1.700808 c 0,0.482482 -0.3920018,0.875844 -0.876004,0.875844 -0.4820026,0 -0.8740044,-0.393362 -0.8740044,-0.875844 0,-0.482482 0.3920018,-0.875844 0.8740044,-0.875844 0.4840022,0 0.876004,0.393362 0.876004,0.875844 z"/>
        <path fill="#f7bd13" gorn="0.5.1"  stroke="none" fill-opacity="1" id="connector15pin" d="m 0.0119324,59.527827 6.3779816,0 0,-3.401615 -6.3779816,0 z m 5.7896732,-1.700808 c 0,0.482482 -0.3920018,0.875844 -0.876004,0.875844 -0.4820026,0 -0.8740044,-0.393362 -0.8740044,-0.875844 0,-0.482482 0.3920018,-0.875844 0.8740044,-0.875844 0.4840022,0 0.876004,0.393362 0.876004,0.875844 z"/>
        <path fill="#f7bd13" gorn="0.5.2"  stroke="none" fill-opacity="1" id="connector14pin" d="m 0.0119324,53.85851 6.3779816,0 0,-3.401615 -6.3779816,0 z m 5.7896732,-1.700808 c 0,0.482482 -0.3920018,0.875844 -0.876004,0.875844 -0.4820026,0 -0.8740044,-0.393362 -0.8740044,-0.875844 0,-0.482482 0.3920018,-0.875844 0.8740044,-0.875844 0.4840022,0 0.876004,0.393362 0.876004,0.875844 z"/>
        <path fill="#f7bd13" gorn="0.5.3"  stroke="none" fill-opacity="1" id="connector13pin" d="m 0.0119324,48.189193 6.3779816,0 0,-3.401615 -6.3779816,0 z m 5.7896732,-1.700808 c 0,0.482482 -0.3920018,0.875844 -0.876004,0.875844 -0.4820026,0 -0.8740044,-0.393362 -0.8740044,-0.875844 0,-0.482482 0.3920018,-0.875844 0.8740044,-0.875844 0.4840022,0 0.876004,0.393362 0.876004,0.875844 z"/>
        <path fill="#f7bd13" gorn="0.5.4"  stroke="none" fill-opacity="1" id="connector12pin" d="m 0.0119324,42.519876 6.3779816,0 0,-3.401615 -6.3779816,0 z m 5.7896732,-1.700808 c 0,0.482482 -0.3920018,0.875844 -0.876004,0.875844 -0.4820026,0 -0.8740044,-0.393362 -0.8740044,-0.875844 0,-0.482482 0.3920018,-0.875844 0.8740044,-0.875844 0.4840022,0 0.876004,0.393362 0.876004,0.875844 z"/>
        <path fill="#f7bd13" gorn="0.5.5"  stroke="none" fill-opacity="1" id="connector5pin" d="m 0.0119324,36.850559 6.3779816,0 0,-3.401615 -6.3779816,0 z m 5.7896732,-1.700808 c 0,0.482482 -0.3920018,0.875844 -0.876004,0.875844 -0.4820026,0 -0.8740044,-0.393362 -0.8740044,-0.875844 0,-0.482482 0.3920018,-0.875844 0.8740044,-0.875844 0.4840022,0 0.876004,0.393362 0.876004,0.875844 z"/>
        <path fill="#f7bd13" gorn="0.5.6"  stroke="none" fill-opacity="1" id="connector11pin" d="m 0.0119324,31.181242 6.3779816,0 0,-3.401615 -6.3779816,0 z m 5.7896732,-1.700808 c 0,0.482482 -0.3920018,0.875844 -0.876004,0.875844 -0.4820026,0 -0.8740044,-0.393362 -0.8740044,-0.875844 0,-0.482482 0.3920018,-0.875844 0.8740044,-0.875844 0.4840022,0 0.876004,0.393362 0.876004,0.875844 z"/>
        <path fill="#f7bd13" gorn="0.5.7"  stroke="none" fill-opacity="1" id="connector16pin" d="m 0.0119324,25.511925 6.3779816,0 0,-3.401615 -6.3779816,0 z m 5.7896732,-1.700808 c 0,0.482482 -0.3920018,0.875844 -0.876004,0.875844 -0.4820026,0 -0.8740044,-0.393362 -0.8740044,-0.875844 0,-0.482482 0.3920018,-0.875844 0.8740044,-0.875844 0.4840022,0 0.876004,0.393362 0.876004,0.875844 z"/>
        <path fill="#f7bd13" gorn="0.5.8"  stroke="none" fill-opacity="1" id="connector7pin" d="m 51.023737,25.511925 -6.377981,0 0,-3.401615 6.377981,0 z m -5.789673,-1.700808 c 0,0.482482 0.392002,0.875844 0.876004,0.875844 0.482003,0 0.874004,-0.393362 0.874004,-0.875844 0,-0.482482 -0.392001,-0.875844 -0.874004,-0.875844 -0.484002,0 -0.876004,0.393362 -0.876004,0.875844 z"/>
        <path fill="#f7bd13" gorn="0.5.9"  stroke="none" fill-opacity="1" id="connector0pin" d="m 51.023737,31.181242 -6.377981,0 0,-3.401615 6.377981,0 z m -5.789673,-1.700808 c 0,0.482482 0.392002,0.875844 0.876004,0.875844 0.482003,0 0.874004,-0.393362 0.874004,-0.875844 0,-0.482482 -0.392001,-0.875844 -0.874004,-0.875844 -0.484002,0 -0.876004,0.393362 -0.876004,0.875844 z"/>
        <path fill="#f7bd13" gorn="0.5.10"  stroke="none" fill-opacity="1" id="connector9pin" d="m 51.023737,36.850559 -6.377981,0 0,-3.401615 6.377981,0 z m -5.789673,-1.700808 c 0,0.482482 0.392002,0.875844 0.876004,0.875844 0.482003,0 0.874004,-0.393362 0.874004,-0.875844 0,-0.482482 -0.392001,-0.875844 -0.874004,-0.875844 -0.484002,0 -0.876004,0.393362 -0.876004,0.875844 z"/>
        <path fill="#f7bd13" gorn="0.5.11"  stroke="none" fill-opacity="1" id="connector10pin" d="m 51.023737,42.519876 -6.377981,0 0,-3.401615 6.377981,0 z m -5.789673,-1.700808 c 0,0.482482 0.392002,0.875844 0.876004,0.875844 0.482003,0 0.874004,-0.393362 0.874004,-0.875844 0,-0.482482 -0.392001,-0.875844 -0.874004,-0.875844 -0.484002,0 -0.876004,0.393362 -0.876004,0.875844 z"/>
        <path fill="#f7bd13" gorn="0.5.12"  stroke="none" fill-opacity="1" id="connector2pin" d="m 51.023737,48.189193 -6.377981,0 0,-3.401615 6.377981,0 z m -5.789673,-1.700808 c 0,0.482482 0.392002,0.875844 0.876004,0.875844 0.482003,0 0.874004,-0.393362 0.874004,-0.875844 0,-0.482482 -0.392001,-0.875844 -0.874004,-0.875844 -0.484002,0 -0.876004,0.393362 -0.876004,0.875844 z"/>
        <path fill="#f7bd13" gorn="0.5.13"  stroke="none" fill-opacity="1" id="connector4pin" d="m 51.023737,53.85851 -6.377981,0 0,-3.401615 6.377981,0 z m -5.789673,-1.700808 c 0,0.482482 0.392002,0.875844 0.876004,0.875844 0.482003,0 0.874004,-0.393362 0.874004,-0.875844 0,-0.482482 -0.392001,-0.875844 -0.874004,-0.875844 -0.484002,0 -0.876004,0.393362 -0.876004,0.875844 z"/>
        <path fill="#f7bd13" gorn="0.5.14"  stroke="none" fill-opacity="1" id="connector8pin" d="m 51.023737,59.527827 -6.377981,0 0,-3.401615 6.377981,0 z m -5.789673,-1.700808 c 0,0.482482 0.392002,0.875844 0.876004,0.875844 0.482003,0 0.874004,-0.393362 0.874004,-0.875844 0,-0.482482 -0.392001,-0.875844 -0.874004,-0.875844 -0.484002,0 -0.876004,0.393362 -0.876004,0.875844 z"/>
        <path fill="#f7bd13" gorn="0.5.15"  stroke="none" fill-opacity="1" id="connector6pin" d="m 51.023737,65.197144 -6.377981,0 0,-3.401615 6.377981,0 z m -5.789673,-1.700808 c 0,0.482482 0.392002,0.875844 0.876004,0.875844 0.482003,0 0.874004,-0.393362 0.874004,-0.875844 0,-0.482482 -0.392001,-0.875844 -0.874004,-0.875844 -0.484002,0 -0.876004,0.393362 -0.876004,0.875844 z"/>
    </g>
</svg>
